Prom 29: National Youth Orchestra of Great Britain

Varèse - Tuning Up (5 mins)
Nico Muhly - Gait (20 mins)
Messiaen - Turangalîla Symphony (77 mins)
Anna Meredith - HandsFree (12 mins)

Cynthia Millar ondes martenot
Joanna MacGregor piano
National Youth Orchestra of Great Britain
Vasily Petrenko conductor

Messiaen’s ecstatic, Eastern-influenced celebration of love is framed by a BBC commission from one of America’s rising talents and Anna Meredith’s acclaimed tour de force of clapping, stamping, singing and body percussion, first performed earlier this year by NYO members and commissioned for the PRS for Music Foundation's New Music 20x12 programme as part of the Cultural Olympiad.
Varèse’s Tuning Up is a tongue-in-cheek parody based on the familiar orchestral strains usually heard on stage only before the conductor arrives.

Video
ID                                       : 1
Format                                   : AVC
Format/Info                              : Advanced Video Codec
Format profile                           : Main@L3.0
Format settings, CABAC                   : Yes
Format settings, ReFrames                : 4 frames
Codec ID                                 : avc1
Codec ID/Info                            : Advanced Video Coding
Duration                                 : 2h 21mn
Bit rate mode                            : Constant
Bit rate                                 : 1 404 Kbps
Width                                    : 832 pixels
Height                                   : 468 pixels
Display aspect ratio                     : 16:9
Frame rate mode                          : Constant
Frame rate                               : 25.000 fps
Standard                                 : PAL
Color space                              : YUV
Chroma subsampling                       : 4:2:0
Bit depth                                : 8 bits
Scan type                                : Progressive
Bits/(Pixel*Frame)                       : 0.144
Stream size                              : 1.38 GiB (93%)

Audio
ID                                       : 2
Format                                   : AAC
Format/Info                              : Advanced Audio Codec
Format profile                           : HE-AAC / LC
Codec ID                                 : 40
Duration                                 : 2h 21mn
Bit rate mode                            : Constant
Bit rate                                 : 96.0 Kbps
Channel(s)                               : 2 channels
Channel positions                        : Front: L R
Sampling rate                            : 48.0 KHz / 24.0 KHz
Compression mode                         : Lossy
Stream size                              : 95.6 MiB (6%)

